<svg xmlns="http://www.w3.org/2000/svg" xmlns:xlink="http://www.w3.org/1999/xlink" width="569" height="612" viewBox="0 0 569 612">
    <defs>
        <path id="a" d="M.188.478h5.524v2.125H.188z"/>
    </defs>
    <g fill="none" fill-rule="evenodd" opacity=".15">
        <path fill="#0F0" d="M3 318a3 3 0 1 0 0 6 3 3 0 0 0 0-6M3 289a3 3 0 1 0 0 6 3 3 0 0 0 0-6M2.424 231c-.747 0-1.413.375-1.884.967-.182 1.005-.366 2.01-.54 3.022C.353 236.156 1.3 237 2.424 237 3.847 237 5 235.656 5 234s-1.153-3-2.576-3M3 260c-.231 0-.456.033-.674.082-.054.013-.104.033-.156.048-.168.05-.327.108-.48.182-.045.023-.087.047-.13.07-.162.09-.312.194-.456.31-.022.018-.046.037-.068.057A2.979 2.979 0 0 0 0 263c0 .93.431 1.75 1.095 2.3.032.023.06.05.09.074.232.176.487.321.764.425.044.017.09.028.135.043.29.093.592.156.913.156L3 266a3 3 0 0 0 .002-6M3 347h-.003c-.321 0-.623.063-.913.156-.044.017-.09.028-.135.043-.277.104-.532.249-.765.426l-.089.074a2.978 2.978 0 0 0-1.095 2.3c0 .902.405 1.7 1.036 2.25l.068.058c.144.117.294.219.456.308.043.024.085.049.13.073.153.072.312.132.476.178.056.017.106.037.16.052.218.049.443.082.675.082a3 3 0 0 0 0-6M40 172a3 3 0 1 0 0 6 3 3 0 0 0 0-6M40 202a3 3 0 1 0 0 5.999A3 3 0 0 0 40 202M40 143a3 3 0 1 0 0 6 3 3 0 0 0 0-6M40 318a3 3 0 1 0 0 6 3 3 0 0 0 0-6M40 347a3 3 0 1 0 0 5.999A3 3 0 0 0 40 347M40 231a3 3 0 1 0 0 6 3 3 0 0 0 0-6M40 289a3 3 0 1 0 0 6 3 3 0 0 0 0-6M40 260a2.999 2.999 0 1 0 0 6 3 3 0 0 0 0-6M78 231a3 3 0 1 0 0 6 3 3 0 0 0 0-6M78 289a3 3 0 1 0 0 6 3 3 0 0 0 0-6M78 260a3 3 0 1 0 0 6 3 3 0 0 0 0-6M78 143a3 3 0 1 0 0 6 3 3 0 0 0 0-6M78 202a3 3 0 1 0 0 6 3 3 0 0 0 0-6M78 318a3 3 0 1 0 0 6 3 3 0 0 0 0-6M78 172a3 3 0 1 0 0 6 3 3 0 0 0 0-6M76 90.243a3.008 3.008 0 0 0 1.989.757C79.65 91 81 89.667 81 88.021A2.94 2.94 0 0 0 80.188 86 311.524 311.524 0 0 0 76 90.243M78 114a3 3 0 1 0 0 6 3 3 0 0 0 0-6M78 347a3 3 0 1 0 0 6 3 3 0 0 0 0-6M115 231a3 3 0 0 0 0 6 3 3 0 0 0 0-6M115 289a3 3 0 0 0 0 6 3 3 0 0 0 0-6M115 260a3 3 0 1 0 0 6 3 3 0 0 0 0-6M115 172a3 3 0 0 0 0 6 3 3 0 0 0 0-6M115 85a3 3 0 0 0 0 6 3 3 0 0 0 0-6M115 114a3 3 0 1 0 0 6 3 3 0 0 0 0-6M115 143a3 3 0 0 0 0 6 3 3 0 0 0 0-6M115 202a3 3 0 1 0-.001 5.999A3 3 0 0 0 115 202M115 347a3 3 0 1 0-.001 5.999A3 3 0 0 0 115 347M115 318a3 3 0 0 0 0 6 3 3 0 0 0 0-6M115 56c-.132 0-.257.022-.385.039-.777.563-1.556 1.125-2.327 1.697-.18.385-.288.81-.288 1.264a3 3 0 1 0 3-3M153 347a3 3 0 1 0-.001 5.999A3 3 0 0 0 153 347M153 318a3 3 0 0 0 0 6 3 3 0 0 0 0-6M153 143a3 3 0 0 0 0 6 3 3 0 0 0 0-6M153 114a3 3 0 1 0 0 6 3 3 0 0 0 0-6M153 172a3 3 0 0 0 0 6 3 3 0 0 0 0-6M153 289a3 3 0 0 0 0 6 3 3 0 0 0 0-6M153 260a3 3 0 1 0 0 6 3 3 0 0 0 0-6M153 231a3 3 0 0 0 0 6 3 3 0 0 0 0-6M153 202a3 3 0 1 0-.001 5.999A3 3 0 0 0 153 202M153 85a3 3 0 0 0 0 6 3 3 0 0 0 0-6M153 56a3 3 0 1 0 0 6 3 3 0 0 0 0-6M191 318a3 3 0 0 0 0 6 3 3 0 0 0 0-6M191 289a3 3 0 0 0 0 6 3 3 0 0 0 0-6M191 347a3 3 0 1 0-.001 5.999A3 3 0 0 0 191 347M191 231a3 3 0 0 0 0 6 3 3 0 0 0 0-6M191 260a3 3 0 1 0 0 6 3 3 0 0 0 0-6M191 202a3 3 0 1 0-.001 5.999A3 3 0 0 0 191 202M191 85a3 3 0 0 0 0 6 3 3 0 0 0 0-6M191 27a3 3 0 0 0 0 6 3 3 0 0 0 0-6M191 56a3 3 0 1 0 0 6 3 3 0 0 0 0-6M191 172a3 3 0 0 0 0 6 3 3 0 0 0 0-6M191 114a3 3 0 1 0 0 6 3 3 0 0 0 0-6M191 143a3 3 0 0 0 0 6 3 3 0 0 0 0-6M228 231a3 3 0 1 0 0 6 3 3 0 0 0 0-6M228 202a3 3 0 1 0 0 6 3 3 0 0 0 0-6M228 27a3 3 0 1 0 0 6 3 3 0 0 0 0-6M228 172a3 3 0 1 0 0 6 3 3 0 0 0 0-6M228 289a3 3 0 1 0 0 6 3 3 0 0 0 0-6M228 114a3 3 0 1 0 0 6 3 3 0 0 0 0-6M228 85a3 3 0 1 0 0 6 3 3 0 0 0 0-6M228 143a3 3 0 1 0 0 6 3 3 0 0 0 0-6M228 318a3 3 0 1 0 0 6 3 3 0 0 0 0-6M228 260a3 3 0 1 0 0 6 3 3 0 0 0 0-6M228 347a3 3 0 1 0 0 6 3 3 0 0 0 0-6M228 56a3 3 0 1 0 0 6 3 3 0 0 0 0-6M265.448 3c.689 0 1.361-.27 1.849-.742.355-.343.596-.786.703-1.258-1.67.099-3.34.202-5 .33.13.346.327.666.6.928.486.472 1.16.742 1.848.742M266 289a3 3 0 1 0 0 6 3 3 0 0 0 0-6M266 260a3 3 0 1 0 0 6 3 3 0 0 0 0-6M266 231a3 3 0 1 0 0 6 3 3 0 0 0 0-6M266 318a3 3 0 1 0 0 6 3 3 0 0 0 0-6M266 347a3 3 0 1 0 0 6 3 3 0 0 0 0-6M266 27a3 3 0 1 0 0 6 3 3 0 0 0 0-6M266 56a3 3 0 1 0 0 6 3 3 0 0 0 0-6M266 114a3 3 0 1 0 0 6 3 3 0 0 0 0-6M266 143a3 3 0 1 0 0 6 3 3 0 0 0 0-6M266 172a3 3 0 1 0 0 6 3 3 0 0 0 0-6M266 202a3 3 0 1 0 0 6 3 3 0 0 0 0-6M266 85a3 3 0 1 0 0 6 3 3 0 0 0 0-6"/>
        <g transform="translate(300)">
            <mask id="b" fill="#fff">
                <use xlink:href="#a"/>
            </mask>
            <path fill="#0F0" d="M2.979 2.603c.744 0 1.47-.258 1.997-.71.365-.313.614-.712.736-1.14A371.033 371.033 0 0 0 .188.479 2.31 2.31 0 0 0 .98 1.894c.527.451 1.255.71 1.999.71" mask="url(#b)"/>
        </g>
        <path fill="#0F0" d="M303 260a3 3 0 1 0 0 6 3 3 0 0 0 0-6M303 231a3 3 0 1 0 0 6 3 3 0 0 0 0-6M303 172a3 3 0 1 0 0 6 3 3 0 0 0 0-6M303 143a3 3 0 1 0 0 6 3 3 0 0 0 0-6M303 114a3 3 0 1 0 0 6 3 3 0 0 0 0-6M303 318a3 3 0 1 0 0 6 3 3 0 0 0 0-6M303 289a3 3 0 1 0 0 6 3 3 0 0 0 0-6M303 347a3 3 0 1 0 0 6 3 3 0 0 0 0-6M303 85a3 3 0 1 0 0 6 3 3 0 0 0 0-6M303 202a3 3 0 1 0 0 6 3 3 0 0 0 0-6M303 56a3 3 0 1 0 0 6 3 3 0 0 0 0-6M303 27a3 3 0 1 0 0 6 3 3 0 0 0 0-6M341 347a3 3 0 1 0 .002 6 3 3 0 0 0-.003-6M341 231a3 3 0 1 0 0 6 3 3 0 0 0 0-6M341 318a3 3 0 1 0 0 6 3 3 0 0 0 0-6M341 260a3 3 0 1 0 .001 6 3 3 0 0 0-.002-6M341 202a3 3 0 1 0 .002 6 3 3 0 0 0-.003-6M341 289a3 3 0 1 0 0 6 3 3 0 0 0 0-6M341 85a3 3 0 1 0 0 6 3 3 0 0 0 0-6M341 27a3 3 0 1 0 0 6 3 3 0 0 0 0-6M341 172a3 3 0 1 0 0 6 3 3 0 0 0 0-6M341 56a3 3 0 1 0 .001 6 3 3 0 0 0-.002-6M341 114a3 3 0 1 0 .001 6 3 3 0 0 0-.002-6M341 143a3 3 0 1 0 0 6 3 3 0 0 0 0-6M379 27a3 3 0 1 0 0 6 3 3 0 0 0 0-6M379 114a2.999 2.999 0 1 0 0 6 3 3 0 0 0 0-6M379 85a3 3 0 1 0 0 6 3 3 0 0 0 0-6M379 56a2.999 2.999 0 1 0 0 6 3 3 0 0 0 0-6M379 202a3 3 0 1 0 0 5.999 3 3 0 0 0 0-5.999M379 347a3 3 0 1 0 0 5.999 3 3 0 0 0 0-5.999M379 172a3 3 0 1 0 0 6 3 3 0 0 0 0-6M379 143a3 3 0 1 0 0 6 3 3 0 0 0 0-6M379 318a3 3 0 1 0 0 6 3 3 0 0 0 0-6M379 289a3 3 0 1 0 0 6 3 3 0 0 0 0-6M379 260a2.999 2.999 0 1 0 0 6 3 3 0 0 0 0-6M379 231a3 3 0 1 0 0 6 3 3 0 0 0 0-6M416 260a2.999 2.999 0 1 0 0 6 3 3 0 0 0 0-6M416 202a3 3 0 1 0 0 5.999 3 3 0 0 0 0-5.999M416 231a3 3 0 1 0 0 6 3 3 0 0 0 0-6M416 143a3 3 0 1 0 0 6 3 3 0 0 0 0-6M416 172a3 3 0 1 0 0 6 3 3 0 0 0 0-6M416 114a2.999 2.999 0 1 0 0 6 3 3 0 0 0 0-6M416 56a2.999 2.999 0 1 0 0 6 3 3 0 0 0 0-6M415.923 32c.813 0 1.546-.301 2.077-.783-1.648-.748-3.294-1.496-4.96-2.217a2.31 2.31 0 0 0-.04.371c0 1.451 1.307 2.629 2.923 2.629M416 85a3 3 0 1 0 0 6 3 3 0 0 0 0-6M416 289a3 3 0 1 0 0 6 3 3 0 0 0 0-6M416 318a3 3 0 1 0 0 6 3 3 0 0 0 0-6M416 347a3 3 0 1 0 0 5.999 3 3 0 0 0 0-5.999M454 114a3 3 0 1 0 0 6 3 3 0 0 0 0-6M454 347a3 3 0 1 0 0 6 3 3 0 0 0 0-6M454 318a3 3 0 1 0 0 6 3 3 0 0 0 0-6M454 172a3 3 0 1 0 0 6 3 3 0 0 0 0-6M454 85a3 3 0 1 0 0 6 3 3 0 0 0 0-6M454 289a3 3 0 1 0 0 6 3 3 0 0 0 0-6M454 56a3 3 0 1 0 0 6 3 3 0 0 0 0-6M454 143a3 3 0 1 0 0 6 3 3 0 0 0 0-6M454 231a3 3 0 1 0 0 6 3 3 0 0 0 0-6M454 202a3 3 0 1 0 0 6 3 3 0 0 0 0-6M454 260a3 3 0 1 0 0 6 3 3 0 0 0 0-6M491 260a3 3 0 1 0 0 6 3 3 0 0 0 0-6M491 231a3 3 0 1 0 0 6 3 3 0 0 0 0-6M491 143a3 3 0 1 0 0 6 3 3 0 0 0 0-6M491 85a3 3 0 1 0 0 6 3 3 0 0 0 0-6M491 114a3 3 0 1 0 0 6 3 3 0 0 0 0-6M491 202a3 3 0 1 0 0 6 3 3 0 0 0 0-6M491 347a3 3 0 1 0 0 6 3 3 0 0 0 0-6M491 172a3 3 0 1 0 0 6 3 3 0 0 0 0-6M491 318a3 3 0 1 0 0 6 3 3 0 0 0 0-6M491 289a3 3 0 1 0 0 6 3 3 0 0 0 0-6M529 202a3 3 0 1 0-.001 5.999A3 3 0 0 0 529 202M529 260a3 3 0 1 0 0 6 3 3 0 0 0 0-6M529 347a3 3 0 1 0-.001 5.999A3 3 0 0 0 529 347M529 289a3 3 0 1 0 .002 6.002A3 3 0 0 0 529 289M529 143a3 3 0 1 0 .002 6.002A3 3 0 0 0 529 143M529 172a3 3 0 1 0 .002 6.002A3 3 0 0 0 529 172M529 231a3 3 0 1 0 .002 6.002A3 3 0 0 0 529 231M529 318a3 3 0 1 0 .002 6.002A3 3 0 0 0 529 318M566 260a2.999 2.999 0 1 0 0 6 3 3 0 0 0 0-6M566 237a3 3 0 1 0-.001-6 3 3 0 0 0 .002 6M566 289a3 3 0 1 0 0 6 3 3 0 0 0 0-6M566 347a3 3 0 1 0 0 5.999 3 3 0 0 0 0-5.999M566 318a3 3 0 1 0 0 6 3 3 0 0 0 0-6M566 207a271.563 271.563 0 0 0-1.739-5c-.76.503-1.261 1.313-1.261 2.232 0 1.514 1.339 2.737 3 2.768M2.424 376c-1.124 0-2.071.844-2.424 2.011.174 1.011.358 2.017.54 3.024.47.588 1.137.965 1.884.965C3.847 382 5 380.656 5 379s-1.153-3-2.576-3M40 435a3 3 0 1 0 0 5.999A3 3 0 0 0 40 435M40 406a3 3 0 1 0-.001 6 3 3 0 0 0 .002-6M40 464a3 3 0 1 0 0 6 3 3 0 0 0 0-6M40 376a3 3 0 1 0 0 6 3 3 0 0 0 0-6M78 376a3 3 0 1 0 0 6 3 3 0 0 0 0-6M78 464a3 3 0 1 0 0 6 3 3 0 0 0 0-6M78 406a3 3 0 1 0-.001 5.999A3 3 0 0 0 78 406M78 435a3 3 0 1 0 0 6 3 3 0 0 0 0-6M77.989 522c-.767 0-1.457.29-1.989.757A322.516 322.516 0 0 0 80.188 527a2.94 2.94 0 0 0 .812-2.023c0-1.643-1.349-2.977-3.011-2.977M78 493a3 3 0 1 0-.001 5.999A3 3 0 0 0 78 493M115 376a3 3 0 0 0 0 6 3 3 0 0 0 0-6M115 435a3 3 0 1 0-.001 5.999A3 3 0 0 0 115 435M115 522a3 3 0 1 0 .001 6.001A3 3 0 0 0 115 522M115 493a3 3 0 1 0 .001 6.001A3 3 0 0 0 115 493M115 464a3 3 0 0 0 0 6 3 3 0 0 0 0-6M115 406a3 3 0 1 0 .001 6.001A3 3 0 0 0 115 406M115 551a3 3 0 0 0-3 3c0 .45.108.878.288 1.263.771.57 1.55 1.131 2.327 1.696.128.017.253.041.385.041a3 3 0 0 0 0-6M153 464a3 3 0 0 0 0 6 3 3 0 0 0 0-6M153 493a3 3 0 1 0 .001 6.001A3 3 0 0 0 153 493M153 435a3 3 0 1 0-.001 5.999A3 3 0 0 0 153 435M153 376a3 3 0 0 0 0 6 3 3 0 0 0 0-6M153 406a3 3 0 1 0 .001 6.001A3 3 0 0 0 153 406M153 522a3 3 0 1 0 .001 6.001A3 3 0 0 0 153 522M153 551a3 3 0 1 0 0 6 3 3 0 0 0 0-6M191 376a3 3 0 0 0 0 6 3 3 0 0 0 0-6M191 406a3 3 0 1 0 .001 6.001A3 3 0 0 0 191 406M191 522a3 3 0 1 0 .001 6.001A3 3 0 0 0 191 522M191 581a3 3 0 1 0 .001 6.001A3 3 0 0 0 191 581M191 551a3 3 0 1 0 0 6 3 3 0 0 0 0-6M191 435a3 3 0 1 0-.001 5.999A3 3 0 0 0 191 435M191 493a3 3 0 1 0 .001 6.001A3 3 0 0 0 191 493M191 464a3 3 0 0 0 0 6 3 3 0 0 0 0-6M228 376a3 3 0 1 0 0 6 3 3 0 0 0 0-6M228 406a3 3 0 1 0-.001 5.999A3 3 0 0 0 228 406M228 581a3 3 0 1 0-.001 5.999A3 3 0 0 0 228 581M228 435a3 3 0 1 0 0 6 3 3 0 0 0 0-6M228 493a3 3 0 1 0-.001 5.999A3 3 0 0 0 228 493M228 522a3 3 0 1 0-.001 5.999A3 3 0 0 0 228 522M228 464a3 3 0 1 0 0 6 3 3 0 0 0 0-6M228 551a3 3 0 1 0-.001 5.999A3 3 0 0 0 228 551M265.448 610a2.68 2.68 0 0 0-1.849.741c-.272.264-.47.583-.599.928 1.66.129 3.33.232 5 .331a2.535 2.535 0 0 0-.703-1.259 2.683 2.683 0 0 0-1.849-.741M266 376a3 3 0 1 0 0 6 3 3 0 0 0 0-6M266 581a3 3 0 1 0-.001 5.999A3 3 0 0 0 266 581M266 551a3 3 0 1 0-.001 5.999A3 3 0 0 0 266 551M266 493a3 3 0 1 0-.001 5.999A3 3 0 0 0 266 493M266 464a3 3 0 1 0 0 6 3 3 0 0 0 0-6M266 435a3 3 0 1 0 0 6 3 3 0 0 0 0-6M266 406a3 3 0 1 0-.001 5.999A3 3 0 0 0 266 406M266 522a3 3 0 1 0-.001 5.999A3 3 0 0 0 266 522M303.526 610a2.75 2.75 0 0 0-1.809.668c-.4.358-.646.832-.717 1.332 1.672-.07 3.337-.162 5-.26a2.235 2.235 0 0 0-.667-1.072 2.746 2.746 0 0 0-1.807-.668M303 376a3 3 0 1 0 0 6 3 3 0 0 0 0-6M303 435a3 3 0 1 0 0 6 3 3 0 0 0 0-6M303 464a3 3 0 1 0 0 6 3 3 0 0 0 0-6M303 493a3 3 0 1 0-.001 5.999A3 3 0 0 0 303 493M303 522a3 3 0 1 0-.001 5.999A3 3 0 0 0 303 522M303 406a3 3 0 1 0-.001 5.999A3 3 0 0 0 303 406M303 551a3 3 0 1 0-.001 5.999A3 3 0 0 0 303 551M303 581a3 3 0 1 0-.001 5.999A3 3 0 0 0 303 581M341 376a3 3 0 1 0 0 6 3 3 0 0 0 0-6M341 406a3 3 0 1 0 0 5.999 3 3 0 0 0 0-5.999M341 522a3 3 0 1 0 0 5.999 3 3 0 0 0 0-5.999M341 581a3 3 0 1 0 0 5.999 3 3 0 0 0 0-5.999M341 435a3 3 0 1 0 .002 6 3 3 0 0 0-.003-6M341 551a3 3 0 1 0 0 5.999 3 3 0 0 0 0-5.999M341 493a3 3 0 1 0 0 5.999 3 3 0 0 0 0-5.999M341 464a3 3 0 1 0 0 6 3 3 0 0 0 0-6M379 581a3 3 0 1 0-.001 6 3 3 0 0 0 .002-6M379 493a3 3 0 1 0-.001 6 3 3 0 0 0 .002-6M379 522a3 3 0 1 0-.001 6 3 3 0 0 0 .002-6M379 551a3 3 0 1 0-.001 6 3 3 0 0 0 .002-6M379 406a3 3 0 1 0-.001 6 3 3 0 0 0 .002-6M379 435a3 3 0 1 0 0 5.999 3 3 0 0 0 0-5.999M379 464a3 3 0 1 0 0 6 3 3 0 0 0 0-6M379 376a3 3 0 1 0 0 6 3 3 0 0 0 0-6M416 406a3 3 0 1 0-.001 6 3 3 0 0 0 .002-6M416 376a3 3 0 1 0 0 6 3 3 0 0 0 0-6M416 464a3 3 0 1 0 0 6 3 3 0 0 0 0-6M416 435a3 3 0 1 0 0 5.999 3 3 0 0 0 0-5.999M416 493a3 3 0 1 0-.001 6 3 3 0 0 0 .002-6M416 551a3 3 0 1 0-.001 6 3 3 0 0 0 .002-6M413 583.627c0 .127.022.25.04.373 1.665-.723 3.313-1.47 4.96-2.218a3.085 3.085 0 0 0-2.078-.782c-1.613 0-2.922 1.176-2.922 2.627M416 522a3 3 0 1 0-.001 6 3 3 0 0 0 .002-6M454 493a3 3 0 1 0-.001 5.999A3 3 0 0 0 454 493M454 435a3 3 0 1 0 0 6 3 3 0 0 0 0-6M454 522a3 3 0 1 0-.001 5.999A3 3 0 0 0 454 522M454 551a3 3 0 1 0 0 6 3 3 0 1 0 0-6M454 464a3 3 0 1 0 0 6 3 3 0 0 0 0-6M454 376a3 3 0 1 0 0 6 3 3 0 0 0 0-6M454 406a3 3 0 1 0-.001 5.999A3 3 0 0 0 454 406M491 376a3 3 0 1 0 0 6 3 3 0 0 0 0-6M491 464a3 3 0 1 0 0 6 3 3 0 0 0 0-6M491 522a3 3 0 1 0-.001 5.999A3 3 0 0 0 491 522M491 493a3 3 0 1 0-.001 5.999A3 3 0 0 0 491 493M491 406a3 3 0 1 0-.001 5.999A3 3 0 0 0 491 406M491 435a3 3 0 1 0 0 6 3 3 0 0 0 0-6M529 406a3 3 0 1 0 .001 6.001A3 3 0 0 0 529 406M529 464a3 3 0 1 0 .002 6.002A3 3 0 0 0 529 464M529 435a3 3 0 1 0-.001 5.999A3 3 0 0 0 529 435M529 376a3 3 0 1 0 .002 6.002A3 3 0 0 0 529 376M566 376a3 3 0 1 0 0 6 3 3 0 0 0 0-6M563 408.765c0 .92.5 1.73 1.261 2.235a262.217 262.217 0 0 0 1.739-5c-1.661.03-3 1.254-3 2.765"/>
    </g>
</svg>
